<?xml version="1.0" encoding="UTF-8"?>
<svg xmlns="http://www.w3.org/2000/svg" xmlns:xlink="http://www.w3.org/1999/xlink" width="400pt" height="413.596911pt" viewBox="0 0 400 413.596911" version="1.1">
<g id="surface1">
<path style="fill-rule:nonzero;fill:rgb(29.411765%,0%,50.980392%);fill-opacity:1;stroke-width:0.01;stroke-linecap:butt;stroke-linejoin:miter;stroke:rgb(0%,0%,0%);stroke-opacity:1;stroke-miterlimit:10;" d="M 1.600019 0.0000186669 C 1.600019 -0.883634 0.88367 -1.599984 0.000017205 -1.599984 C -0.883635 -1.599984 -1.599985 -0.883634 -1.599985 0.0000186669 C -1.599985 0.883671 -0.883635 1.600021 0.000017205 1.600021 C 0.88367 1.600021 1.600019 0.883671 1.600019 0.0000186669 Z " transform="matrix(42.260682,0,0,42.260682,144.007085,218.577336)"/>
<path style="fill-rule:nonzero;fill:rgb(69.803922%,13.333333%,13.333333%);fill-opacity:1;stroke-width:0.01;stroke-linecap:butt;stroke-linejoin:miter;stroke:rgb(0%,0%,0%);stroke-opacity:1;stroke-miterlimit:10;" d="M 4.600833 0.0000186669 C 4.600833 -0.828452 3.92922 -1.499972 3.100842 -1.499972 C 2.272372 -1.499972 1.600851 -0.828359 1.600851 0.0000186669 C 1.600851 0.828489 2.272464 1.500009 3.100842 1.500009 C 3.929312 1.500009 4.600833 0.828397 4.600833 0.0000186669 Z " transform="matrix(42.260682,0,0,42.260682,144.007085,218.577336)"/>
<path style="fill-rule:nonzero;fill:rgb(100%,89.411765%,76.862745%);fill-opacity:1;stroke-width:0.01;stroke-linecap:butt;stroke-linejoin:miter;stroke:rgb(0%,0%,0%);stroke-opacity:1;stroke-miterlimit:10;" d="M 3.045567 -2.509332 C 3.045567 -3.282528 2.418784 -3.909311 1.645589 -3.909311 C 0.872393 -3.909311 0.24561 -3.282528 0.24561 -2.509332 C 0.24561 -1.736136 0.872393 -1.109353 1.645589 -1.109353 C 2.418784 -1.109353 3.045567 -1.736136 3.045567 -2.509332 Z " transform="matrix(42.260682,0,0,42.260682,144.007085,218.577336)"/>
<path style="fill-rule:nonzero;fill:rgb(0%,100%,100%);fill-opacity:1;stroke-width:0.01;stroke-linecap:butt;stroke-linejoin:miter;stroke:rgb(0%,0%,0%);stroke-opacity:1;stroke-miterlimit:10;" d="M 2.942413 2.391056 C 2.942413 1.673042 2.360367 1.091089 1.642446 1.091089 C 0.924432 1.091089 0.342479 1.673135 0.342479 2.391056 C 0.342479 3.10907 0.924525 3.691023 1.642446 3.691023 C 2.36046 3.691023 2.942413 3.108977 2.942413 2.391056 Z " transform="matrix(42.260682,0,0,42.260682,144.007085,218.577336)"/>
<path style="fill-rule:nonzero;fill:rgb(100%,0%,100%);fill-opacity:1;stroke-width:0.01;stroke-linecap:butt;stroke-linejoin:miter;stroke:rgb(0%,0%,0%);stroke-opacity:1;stroke-miterlimit:10;" d="M 0.247921 -2.633931 C 0.247921 -3.29667 -0.289296 -3.833886 -0.952035 -3.833886 C -1.614774 -3.833886 -2.15199 -3.29667 -2.15199 -2.633931 C -2.15199 -1.971192 -1.614774 -1.433975 -0.952035 -1.433975 C -0.289296 -1.433975 0.247921 -1.971192 0.247921 -2.633931 Z " transform="matrix(42.260682,0,0,42.260682,144.007085,218.577336)"/>
<path style="fill-rule:nonzero;fill:rgb(100%,89.411765%,76.862745%);fill-opacity:1;stroke-width:0.01;stroke-linecap:butt;stroke-linejoin:miter;stroke:rgb(0%,0%,0%);stroke-opacity:1;stroke-miterlimit:10;" d="M 5.092665 -1.737615 L 5.308956 -2.403312 L 5.092665 -3.069009 L 4.526332 -3.480425 L 3.826343 -3.480425 L 3.26001 -3.069009 L 3.043719 -2.403312 L 3.26001 -1.737615 L 3.826343 -1.326199 L 4.526332 -1.326199 Z " transform="matrix(42.260682,0,0,42.260682,144.007085,218.577336)"/>
<path style="fill-rule:nonzero;fill:rgb(100%,100%,0%);fill-opacity:1;stroke-width:0.01;stroke-linecap:butt;stroke-linejoin:miter;stroke:rgb(0%,0%,0%);stroke-opacity:1;stroke-miterlimit:10;" d="M 0.350335 2.594592 C 0.350335 1.987035 -0.142144 1.494556 -0.749701 1.494556 C -1.357258 1.494556 -1.849737 1.987035 -1.849737 2.594592 C -1.849737 3.202149 -1.357258 3.694628 -0.749701 3.694628 C -0.142144 3.694628 0.350335 3.202149 0.350335 2.594592 Z " transform="matrix(42.260682,0,0,42.260682,144.007085,218.577336)"/>
<path style="fill-rule:nonzero;fill:rgb(0%,0%,100%);fill-opacity:1;stroke-width:0.01;stroke-linecap:butt;stroke-linejoin:miter;stroke:rgb(0%,0%,0%);stroke-opacity:1;stroke-miterlimit:10;" d="M -1.407634 -0.98346 C -1.407634 -1.535743 -1.855375 -1.983485 -2.407658 -1.983485 C -2.959941 -1.983485 -3.407683 -1.535743 -3.407683 -0.98346 C -3.407683 -0.431178 -2.959941 0.016564 -2.407658 0.016564 C -1.855375 0.016564 -1.407634 -0.431178 -1.407634 -0.98346 Z " transform="matrix(42.260682,0,0,42.260682,144.007085,218.577336)"/>
<path style="fill-rule:nonzero;fill:rgb(0%,100%,100%);fill-opacity:1;stroke-width:0.01;stroke-linecap:butt;stroke-linejoin:miter;stroke:rgb(0%,0%,0%);stroke-opacity:1;stroke-miterlimit:10;" d="M -1.4911 1.765937 L -1.305681 1.19526 L -1.4911 0.624583 L -1.976554 0.271954 L -2.576532 0.271954 L -3.061986 0.624583 L -3.247405 1.19526 L -3.061986 1.765937 L -2.576532 2.118566 L -1.976554 2.118566 Z " transform="matrix(42.260682,0,0,42.260682,144.007085,218.577336)"/>
<path style="fill-rule:nonzero;fill:rgb(100%,0%,0%);fill-opacity:1;stroke-width:0.01;stroke-linecap:butt;stroke-linejoin:miter;stroke:rgb(0%,0%,0%);stroke-opacity:1;stroke-miterlimit:10;" d="M 4.740405 2.283927 C 4.740405 1.786827 4.337493 1.383914 3.840392 1.383914 C 3.343292 1.383914 2.94038 1.786827 2.94038 2.283927 C 2.94038 2.781028 3.343292 3.18394 3.840392 3.18394 C 4.337493 3.18394 4.740405 2.781028 4.740405 2.283927 Z " transform="matrix(42.260682,0,0,42.260682,144.007085,218.577336)"/>
<path style="fill-rule:nonzero;fill:rgb(100%,0%,100%);fill-opacity:1;stroke-width:0.01;stroke-linecap:butt;stroke-linejoin:miter;stroke:rgb(0%,0%,0%);stroke-opacity:1;stroke-miterlimit:10;" d="M 0.918516 -3.757999 L 1.073063 -4.233563 L 0.918516 -4.709127 L 0.514033 -5.003062 L 0.0140669 -5.003062 L -0.390417 -4.709127 L -0.544963 -4.233563 L -0.390417 -3.757999 L 0.0140669 -3.464065 L 0.514033 -3.464065 Z " transform="matrix(42.260682,0,0,42.260682,144.007085,218.577336)"/>
<path style="fill-rule:nonzero;fill:rgb(29.411765%,0%,50.980392%);fill-opacity:1;stroke-width:0.01;stroke-linecap:butt;stroke-linejoin:miter;stroke:rgb(0%,0%,0%);stroke-opacity:1;stroke-miterlimit:10;" d="M 6.057472 -0.801092 C 6.057472 -1.242918 5.699297 -1.601093 5.257471 -1.601093 C 4.815645 -1.601093 4.45747 -1.242918 4.45747 -0.801092 C 4.45747 -0.359265 4.815645 -0.00109052 5.257471 -0.00109052 C 5.699297 -0.00109052 6.057472 -0.359265 6.057472 -0.801092 Z " transform="matrix(42.260682,0,0,42.260682,144.007085,218.577336)"/>
<path style="fill-rule:nonzero;fill:rgb(69.803922%,13.333333%,13.333333%);fill-opacity:1;stroke-width:0.01;stroke-linecap:butt;stroke-linejoin:miter;stroke:rgb(0%,0%,0%);stroke-opacity:1;stroke-miterlimit:10;" d="M 3.88134 -3.942494 C 3.88134 -4.329138 3.567902 -4.642484 3.18135 -4.642484 C 2.794706 -4.642484 2.481361 -4.329046 2.481361 -3.942494 C 2.481361 -3.55585 2.794799 -3.242505 3.18135 -3.242505 C 3.567995 -3.242505 3.88134 -3.555942 3.88134 -3.942494 Z " transform="matrix(42.260682,0,0,42.260682,144.007085,218.577336)"/>
<path style="fill-rule:nonzero;fill:rgb(69.803922%,13.333333%,13.333333%);fill-opacity:1;stroke-width:0.01;stroke-linecap:butt;stroke-linejoin:miter;stroke:rgb(0%,0%,0%);stroke-opacity:1;stroke-miterlimit:10;" d="M 5.324022 1.760761 L 5.674063 1.154497 L 5.324022 0.548234 L 4.624033 0.548234 L 4.273992 1.154497 L 4.624033 1.760761 Z " transform="matrix(42.260682,0,0,42.260682,144.007085,218.577336)"/>
<path style="fill-rule:nonzero;fill:rgb(100%,100%,0%);fill-opacity:1;stroke-width:0.01;stroke-linecap:butt;stroke-linejoin:miter;stroke:rgb(0%,0%,0%);stroke-opacity:1;stroke-miterlimit:10;" d="M 2.207577 -4.176163 L 2.331159 -4.556614 L 2.207577 -4.937065 L 1.883971 -5.172213 L 1.484017 -5.172213 L 1.160412 -4.937065 L 1.03683 -4.556614 L 1.160412 -4.176163 L 1.484017 -3.941015 L 1.883971 -3.941015 Z " transform="matrix(42.260682,0,0,42.260682,144.007085,218.577336)"/>
<path style="fill-rule:nonzero;fill:rgb(100%,89.411765%,76.862745%);fill-opacity:1;stroke-width:0.01;stroke-linecap:butt;stroke-linejoin:miter;stroke:rgb(0%,0%,0%);stroke-opacity:1;stroke-miterlimit:10;" d="M 1.010302 3.838083 C 1.010302 3.506713 0.741694 3.238105 0.410324 3.238105 C 0.0789543 3.238105 -0.189654 3.506713 -0.189654 3.838083 C -0.189654 4.169453 0.0789543 4.438061 0.410324 4.438061 C 0.741694 4.438061 1.010302 4.169453 1.010302 3.838083 Z " transform="matrix(42.260682,0,0,42.260682,144.007085,218.577336)"/>
<path style="fill-rule:nonzero;fill:rgb(100%,89.411765%,76.862745%);fill-opacity:1;stroke-width:0.01;stroke-linecap:butt;stroke-linejoin:miter;stroke:rgb(0%,0%,0%);stroke-opacity:1;stroke-miterlimit:10;" d="M 3.412246 4.115195 L 3.712281 3.595541 L 3.412246 3.075887 L 2.812268 3.075887 L 2.512233 3.595541 L 2.812268 4.115195 Z " transform="matrix(42.260682,0,0,42.260682,144.007085,218.577336)"/>
<path style="fill-rule:nonzero;fill:rgb(0%,100%,100%);fill-opacity:1;stroke-width:0.01;stroke-linecap:butt;stroke-linejoin:miter;stroke:rgb(0%,0%,0%);stroke-opacity:1;stroke-miterlimit:10;" d="M -2.144134 -2.465057 C -2.144134 -2.741245 -2.368005 -2.965023 -2.6441 -2.965023 C -2.920287 -2.965023 -3.144066 -2.741152 -3.144066 -2.465057 C -3.144066 -2.188869 -2.920195 -1.965091 -2.6441 -1.965091 C -2.367912 -1.965091 -2.144134 -2.188962 -2.144134 -2.465057 Z " transform="matrix(42.260682,0,0,42.260682,144.007085,218.577336)"/>
<path style="fill-rule:nonzero;fill:rgb(0%,100%,100%);fill-opacity:1;stroke-width:0.01;stroke-linecap:butt;stroke-linejoin:miter;stroke:rgb(0%,0%,0%);stroke-opacity:1;stroke-miterlimit:10;" d="M 1.705392 4.614699 L 1.955421 4.181654 L 1.705392 3.748609 L 1.205426 3.748609 L 0.955397 4.181654 L 1.205426 4.614699 Z " transform="matrix(42.260682,0,0,42.260682,144.007085,218.577336)"/>
<path style="fill-rule:nonzero;fill:rgb(0%,0%,100%);fill-opacity:1;stroke-width:0.01;stroke-linecap:butt;stroke-linejoin:miter;stroke:rgb(0%,0%,0%);stroke-opacity:1;stroke-miterlimit:10;" d="M -0.6349 -4.032708 L -0.54219 -4.318046 L -0.6349 -4.603385 L -0.877627 -4.779745 L -1.177662 -4.779745 L -1.420389 -4.603385 L -1.513099 -4.318046 L -1.420389 -4.032708 L -1.177662 -3.856347 L -0.877627 -3.856347 Z " transform="matrix(42.260682,0,0,42.260682,144.007085,218.577336)"/>
<path style="fill-rule:nonzero;fill:rgb(100%,0%,100%);fill-opacity:1;stroke-width:0.01;stroke-linecap:butt;stroke-linejoin:miter;stroke:rgb(0%,0%,0%);stroke-opacity:1;stroke-miterlimit:10;" d="M -1.849737 2.565938 C -1.849737 2.345025 -2.028778 2.165984 -2.249691 2.165984 C -2.470604 2.165984 -2.649646 2.345025 -2.649646 2.565938 C -2.649646 2.786851 -2.470604 2.965892 -2.249691 2.965892 C -2.028778 2.965892 -1.849737 2.786851 -1.849737 2.565938 Z " transform="matrix(42.260682,0,0,42.260682,144.007085,218.577336)"/>
<path style="fill-rule:nonzero;fill:rgb(100%,0%,100%);fill-opacity:1;stroke-width:0.01;stroke-linecap:butt;stroke-linejoin:miter;stroke:rgb(0%,0%,0%);stroke-opacity:1;stroke-miterlimit:10;" d="M -2.193308 -2.98314 L -1.993284 -3.329576 L -2.193308 -3.676012 L -2.593262 -3.676012 L -2.793285 -3.329576 L -2.593262 -2.98314 Z " transform="matrix(42.260682,0,0,42.260682,144.007085,218.577336)"/>
<path style="fill-rule:nonzero;fill:rgb(100%,0%,0%);fill-opacity:1;stroke-width:0.01;stroke-linecap:butt;stroke-linejoin:miter;stroke:rgb(0%,0%,0%);stroke-opacity:1;stroke-miterlimit:10;" d="M 2.502343 4.09107 L 2.56418 3.900845 L 2.502343 3.710619 L 2.340494 3.593045 L 2.140471 3.593045 L 1.978622 3.710619 L 1.916785 3.900845 L 1.978622 4.09107 L 2.140471 4.208644 L 2.340494 4.208644 Z " transform="matrix(42.260682,0,0,42.260682,144.007085,218.577336)"/>
<path style="fill-rule:nonzero;fill:rgb(100%,100%,0%);fill-opacity:1;stroke-width:0.01;stroke-linecap:butt;stroke-linejoin:miter;stroke:rgb(0%,0%,0%);stroke-opacity:1;stroke-miterlimit:10;" d="M -1.409944 -3.928907 C -1.409944 -4.094638 -1.544248 -4.228942 -1.709979 -4.228942 C -1.87571 -4.228942 -2.010015 -4.094638 -2.010015 -3.928907 C -2.010015 -3.763176 -1.87571 -3.628872 -1.709979 -3.628872 C -1.544248 -3.628872 -1.409944 -3.763176 -1.409944 -3.928907 Z " transform="matrix(42.260682,0,0,42.260682,144.007085,218.577336)"/>
<path style="fill-rule:nonzero;fill:rgb(100%,100%,0%);fill-opacity:1;stroke-width:0.01;stroke-linecap:butt;stroke-linejoin:miter;stroke:rgb(0%,0%,0%);stroke-opacity:1;stroke-miterlimit:10;" d="M 4.325847 -3.576185 L 4.475864 -3.836012 L 4.325847 -4.095839 L 4.025811 -4.095839 L 3.875794 -3.836012 L 4.025811 -3.576185 Z " transform="matrix(42.260682,0,0,42.260682,144.007085,218.577336)"/>
<path style="fill-rule:nonzero;fill:rgb(0%,0%,100%);fill-opacity:1;stroke-width:0.01;stroke-linecap:butt;stroke-linejoin:miter;stroke:rgb(0%,0%,0%);stroke-opacity:1;stroke-miterlimit:10;" d="M 1.806883 -0.812184 C 1.806883 -0.92264 1.717316 -1.012207 1.606859 -1.012207 C 1.496403 -1.012207 1.406836 -0.92264 1.406836 -0.812184 C 1.406836 -0.701727 1.496403 -0.61216 1.606859 -0.61216 C 1.717316 -0.61216 1.806883 -0.701727 1.806883 -0.812184 Z " transform="matrix(42.260682,0,0,42.260682,144.007085,218.577336)"/>
<path style="fill-rule:nonzero;fill:rgb(0%,0%,100%);fill-opacity:1;stroke-width:0.01;stroke-linecap:butt;stroke-linejoin:miter;stroke:rgb(0%,0%,0%);stroke-opacity:1;stroke-miterlimit:10;" d="M 1.706871 0.985254 L 1.806883 0.812036 L 1.706871 0.638818 L 1.506848 0.638818 L 1.406836 0.812036 L 1.506848 0.985254 Z " transform="matrix(42.260682,0,0,42.260682,144.007085,218.577336)"/>
<path style="fill-rule:nonzero;fill:rgb(29.411765%,0%,50.980392%);fill-opacity:1;stroke-width:0.01;stroke-linecap:butt;stroke-linejoin:miter;stroke:rgb(0%,0%,0%);stroke-opacity:1;stroke-miterlimit:10;" d="M 0.417626 -1.643612 L 0.448498 -1.738724 L 0.417626 -1.833837 L 0.336748 -1.892624 L 0.236736 -1.892624 L 0.155858 -1.833837 L 0.124986 -1.738724 L 0.155858 -1.643612 L 0.236736 -1.584825 L 0.336748 -1.584825 Z " transform="matrix(42.260682,0,0,42.260682,144.007085,218.577336)"/>
<path style="fill-rule:nonzero;fill:rgb(100%,0%,0%);fill-opacity:1;stroke-width:0.01;stroke-linecap:butt;stroke-linejoin:miter;stroke:rgb(0%,0%,0%);stroke-opacity:1;stroke-miterlimit:10;" d="M 1.474127 -1.00167 C 1.474127 -1.056944 1.42939 -1.101681 1.374115 -1.101681 C 1.318841 -1.101681 1.274103 -1.056944 1.274103 -1.00167 C 1.274103 -0.946395 1.318841 -0.901658 1.374115 -0.901658 C 1.42939 -0.901658 1.474127 -0.946395 1.474127 -1.00167 Z " transform="matrix(42.260682,0,0,42.260682,144.007085,218.577336)"/>
<path style="fill-rule:nonzero;fill:rgb(100%,0%,0%);fill-opacity:1;stroke-width:0.01;stroke-linecap:butt;stroke-linejoin:miter;stroke:rgb(0%,0%,0%);stroke-opacity:1;stroke-miterlimit:10;" d="M 1.89608 -0.906742 L 1.946086 -0.993351 L 1.89608 -1.07996 L 1.796068 -1.07996 L 1.746062 -0.993351 L 1.796068 -0.906742 Z " transform="matrix(42.260682,0,0,42.260682,144.007085,218.577336)"/>
</g>
</svg>
